<svg width="32" height="32" viewBox="0 0 32 32" fill="none" xmlns="http://www.w3.org/2000/svg">
<path d="M15.9997 0C24.8226 0 32 7.17794 32 16.0003C32 24.8226 24.8226 32 15.9997 32C7.17736 32 0 24.8226 0 16.0003C0 7.17794 7.17736 0 15.9997 0ZM20.5392 6.4H17.0371C14.9819 6.4 13.3152 7.94807 13.3152 9.85821V12.5987H11.4602C11.3168 12.5987 11.2 12.7067 11.2 12.8405V15.6831C11.2 15.8163 11.3168 15.9243 11.4602 15.9243H13.3152V25.3582C13.3152 25.492 13.432 25.6 13.5754 25.6H17.2853C17.4293 25.6 17.5455 25.492 17.5455 25.3582V15.9243H20.2354C20.3705 15.9243 20.4836 15.8286 20.4943 15.7031L20.7533 12.8604C20.7665 12.7196 20.6459 12.5987 20.4937 12.5987H17.5455V10.5818C17.5455 10.1094 17.9585 9.72617 18.4669 9.72617H20.5392C20.6832 9.72617 20.8 9.61761 20.8 9.48439V6.64178C20.8 6.50856 20.6832 6.4 20.5392 6.4Z" fill="black"/>
</svg>
