<svg width="146" height="45" viewBox="0 0 146 45" fill="none" xmlns="http://www.w3.org/2000/svg">
<path d="M53.4631 20.7634H62.6202V23.1858H56.492V25.3582H62.0246V27.7614L56.492 27.7806V29.9659H62.7866V32.3883H53.4631V20.7634Z" fill="white"/>
<path d="M75.8434 32.3883H72.219L69.1709 27.8767L67.7109 29.5045V32.3883H64.6757V20.7634H67.7109V25.8068L72.0653 20.7634H75.5809L71.2713 25.5569L75.8434 32.3883Z" fill="white"/>
<path d="M85.5319 21.3594C86.486 21.8785 87.2352 22.5898 87.7859 23.4998C88.3302 24.4034 88.6056 25.4223 88.6056 26.5502C88.6056 27.6909 88.3302 28.7162 87.7859 29.6327C87.2416 30.5491 86.486 31.2732 85.5319 31.8051C84.5778 32.337 83.5084 32.5998 82.3237 32.5998C81.1391 32.5998 80.0761 32.337 79.1156 31.8115C78.1615 31.286 77.4059 30.5619 76.8616 29.6391C76.3173 28.7162 76.0419 27.6845 76.0419 26.5438C76.0419 25.4159 76.3173 24.397 76.8616 23.4934C77.4059 22.5898 78.1615 21.872 79.1156 21.353C80.0697 20.8339 81.1391 20.5711 82.3237 20.5711C83.5084 20.5839 84.5778 20.8403 85.5319 21.3594ZM80.7613 23.6023C80.2682 23.9035 79.8776 24.3137 79.5959 24.8391C79.3077 25.3646 79.1668 25.9414 79.1668 26.5694C79.1668 27.2103 79.3141 27.7934 79.6087 28.3189C79.9032 28.8444 80.2874 29.261 80.7741 29.5622C81.2608 29.8698 81.7923 30.0172 82.3622 30.0172C82.9385 30.0172 83.4636 29.8634 83.9438 29.5622C84.4241 29.261 84.8019 28.8444 85.0773 28.3189C85.3526 27.7934 85.4935 27.2103 85.4935 26.5694C85.4935 25.9414 85.3526 25.3582 85.0773 24.8391C84.8019 24.3137 84.4241 23.9035 83.9438 23.6023C83.4636 23.3011 82.9321 23.1537 82.3622 23.1537C81.7859 23.1537 81.2544 23.3011 80.7613 23.6023Z" fill="white"/>
<path d="M96.1681 23.3652C95.4637 23.1345 94.8746 23.0191 94.4007 23.0191C94.0229 23.0191 93.7283 23.0896 93.517 23.2242C93.2993 23.3652 93.1904 23.5639 93.1904 23.8266C93.1904 24.0829 93.2865 24.2944 93.4722 24.4675C93.6579 24.6405 93.8948 24.7751 94.1702 24.884C94.4455 24.9865 94.8553 25.1275 95.3996 25.2877C96.2065 25.5184 96.8725 25.7491 97.3975 25.9862C97.9226 26.217 98.3709 26.5758 98.7487 27.0565C99.1265 27.5371 99.3122 28.1651 99.3122 28.9405C99.3122 29.716 99.1073 30.376 98.6975 30.9207C98.2876 31.4655 97.7305 31.882 97.0133 32.1576C96.3025 32.4331 95.5085 32.5741 94.6376 32.5741C93.6771 32.5741 92.7166 32.4075 91.7625 32.0679C90.8083 31.7282 89.9823 31.2668 89.2843 30.6836L90.4625 28.3125C91.0453 28.8316 91.7432 29.2545 92.5437 29.5878C93.3441 29.921 94.0549 30.0876 94.6761 30.0876C95.1307 30.0876 95.4829 30.0043 95.7454 29.8377C96.008 29.6711 96.1361 29.4276 96.1361 29.1072C96.1361 28.8444 96.04 28.6201 95.8479 28.4471C95.6558 28.2677 95.4125 28.1267 95.1179 28.0241C94.8233 27.9216 94.4135 27.7934 93.882 27.6524C93.088 27.4346 92.4284 27.2103 91.9097 26.9796C91.3911 26.7553 90.9428 26.4092 90.5778 25.9478C90.2064 25.4928 90.0207 24.8776 90.0207 24.115C90.0207 23.3972 90.2128 22.7692 90.5906 22.2245C90.9748 21.6798 91.5127 21.2632 92.2107 20.9749C92.9151 20.6801 93.7283 20.5391 94.6568 20.5391C95.4957 20.5391 96.3217 20.6544 97.1414 20.8915C97.961 21.1287 98.6782 21.4491 99.293 21.8464L98.1532 24.2688C97.532 23.8971 96.8724 23.6023 96.1681 23.3652Z" fill="white"/>
<path d="M99.8757 20.7634H109.833V23.2691H106.356V32.3883H103.321V23.2691H99.8757V20.7634Z" fill="white"/>
<path d="M118.068 32.3883L116.378 29.1712H114.13V32.3883H111.095V20.7634H116.314C117.85 20.7634 119.041 21.1222 119.887 21.8336C120.732 22.5449 121.155 23.551 121.155 24.8455C121.155 25.7171 120.975 26.4733 120.623 27.1077C120.271 27.7421 119.759 28.2356 119.08 28.5945L121.5 32.3947H118.068V32.3883ZM114.124 26.7488H116.326C116.948 26.7488 117.421 26.595 117.761 26.2874C118.094 25.9798 118.267 25.5312 118.267 24.9417C118.267 24.3777 118.1 23.9419 117.761 23.6408C117.421 23.3331 116.948 23.1858 116.326 23.1858H114.124V26.7488Z" fill="white"/>
<path d="M131.656 32.3883L130.862 30.3312H125.842L125.029 32.3883H121.917L126.905 20.7634H130.017L134.89 32.3883H131.656ZM126.751 28.0113H129.966L128.378 23.865L126.751 28.0113Z" fill="white"/>
<path d="M135.505 20.7634H145.475V22.7564L139.347 29.9531H145.578V32.3883H135.287V30.4145L141.415 23.205H135.505V20.7634Z" fill="white"/>
<path d="M55.7555 2.16612C55.4674 2.08281 55.1984 2.04436 54.9423 2.04436C54.5389 2.04436 54.2123 2.12767 53.9625 2.28788C53.7192 2.44809 53.5975 2.66598 53.5975 2.94154C53.5975 3.18506 53.6616 3.38372 53.8024 3.53753C53.9369 3.69133 54.1034 3.81309 54.3019 3.8964C54.5004 3.98612 54.7694 4.08224 55.1152 4.19119C55.5186 4.31295 55.8388 4.4283 56.0821 4.54365C56.3254 4.659 56.5368 4.82562 56.7096 5.04992C56.8825 5.2678 56.9658 5.56259 56.9658 5.92146C56.9658 6.23548 56.8761 6.51745 56.6968 6.76097C56.5175 7.00449 56.2678 7.19033 55.9476 7.32491C55.6275 7.45949 55.2561 7.52357 54.8398 7.52357C54.43 7.52357 54.0266 7.44026 53.6296 7.28005C53.2389 7.11343 52.8996 6.89554 52.6178 6.62639L52.8867 6.14576C53.1493 6.40209 53.4631 6.60716 53.8089 6.75456C54.161 6.90195 54.5068 6.97245 54.8398 6.97245C55.2945 6.97245 55.6531 6.88273 55.9156 6.69688C56.1782 6.51104 56.3126 6.26752 56.3126 5.9535C56.3126 5.70358 56.2422 5.49851 56.1077 5.3447C55.9732 5.18449 55.8067 5.06273 55.6082 4.97942C55.4097 4.89611 55.1344 4.79358 54.7758 4.68464C54.3724 4.56288 54.0522 4.44112 53.8089 4.33217C53.5655 4.22323 53.3606 4.05661 53.1877 3.83872C53.0212 3.62084 52.9316 3.33887 52.9316 2.9864C52.9316 2.6852 53.0148 2.42246 53.1877 2.19816C53.3606 1.97387 53.5975 1.80084 53.8985 1.67908C54.2059 1.55732 54.5581 1.49965 54.9551 1.49965C55.2753 1.49965 55.6018 1.55091 55.9284 1.64704C56.255 1.74317 56.5368 1.87133 56.7865 2.03155L56.5303 2.5314C56.3062 2.36478 56.0437 2.24943 55.7555 2.16612Z" fill="white"/>
<path d="M58.746 1.5445H63.2413V2.0764H61.2882V7.47871H60.7055V2.0764H58.746V1.5445Z" fill="white"/>
<path d="M69.1197 1.90338C69.5935 2.17253 69.9649 2.5314 70.2403 2.99281C70.5156 3.44781 70.6565 3.95407 70.6565 4.49879C70.6565 5.04992 70.5156 5.55618 70.2403 6.01759C69.9649 6.479 69.5935 6.85068 69.1197 7.11984C68.6458 7.38899 68.1335 7.52998 67.5636 7.52998C66.9937 7.52998 66.4814 7.3954 66.0075 7.11984C65.5337 6.85068 65.1623 6.479 64.8869 6.01759C64.6116 5.55618 64.4707 5.04992 64.4707 4.49879C64.4707 3.95407 64.6116 3.44781 64.8869 2.99281C65.1623 2.53781 65.5401 2.17253 66.0075 1.90338C66.4814 1.63422 66.9937 1.49965 67.5636 1.49965C68.1335 1.49965 68.6522 1.63422 69.1197 1.90338ZM66.3213 2.35838C65.9371 2.57626 65.6297 2.87746 65.4056 3.25556C65.1815 3.63365 65.0662 4.0502 65.0662 4.49879C65.0662 4.95379 65.1815 5.37034 65.4056 5.75484C65.6297 6.13935 65.9371 6.44054 66.3213 6.66484C66.7055 6.88913 67.1217 6.99808 67.5764 6.99808C68.0246 6.99808 68.4345 6.88913 68.8187 6.66484C69.2029 6.44054 69.5039 6.13935 69.728 5.75484C69.9521 5.37034 70.0674 4.95379 70.0674 4.49879C70.0674 4.0502 69.9521 3.63365 69.728 3.25556C69.5039 2.87746 69.1965 2.57626 68.8187 2.35838C68.4345 2.14049 68.0246 2.03155 67.5764 2.03155C67.1217 2.02514 66.7055 2.13408 66.3213 2.35838Z" fill="white"/>
<path d="M80.1209 1.5445H80.7356L78.7313 7.47871H78.123L76.4517 2.28147L74.7675 7.47871H74.1656L72.1677 1.5445H72.8017L74.4922 6.85709L76.1635 1.5445H76.759L78.4431 6.85709L80.1209 1.5445Z" fill="white"/>
<path d="M86.9343 7.4723L86.2299 5.89582H82.9449L82.2533 7.4723H81.6258L84.296 1.55091H84.9044L87.5746 7.4723H86.9343ZM83.1754 5.37033H86.0058L84.5842 2.16612L83.1754 5.37033Z" fill="white"/>
<path d="M93.6195 7.4723L92.3388 5.53695C92.1595 5.54977 92.0186 5.55618 91.9226 5.55618H90.2961V7.4723H89.7134V1.55091H91.9226C92.659 1.55091 93.2353 1.72393 93.6387 2.06358C94.0421 2.40323 94.247 2.89027 94.247 3.5183C94.247 4.01174 94.1254 4.42188 93.8885 4.74871C93.6515 5.07554 93.3121 5.30625 92.8703 5.43442L94.2919 7.47871H93.6195V7.4723ZM91.9226 5.03709C92.4861 5.03709 92.9215 4.90893 93.2289 4.65259C93.5363 4.39625 93.6835 4.02456 93.6835 3.53752C93.6835 3.0633 93.5299 2.70442 93.2289 2.4545C92.9215 2.20457 92.4861 2.08281 91.9226 2.08281H90.2961V5.03709H91.9226Z" fill="white"/>
<path d="M96.5715 1.55091H101.233V1.9995L97.2183 6.95321H101.272V7.47871H96.4563V7.0173L100.484 2.0764H96.5715V1.55091Z" fill="white"/>
<path d="M108.04 1.55091L105.761 5.36392V7.47871H105.178V5.36392L102.866 1.55091H103.474L105.472 4.7359L107.432 1.55091H108.04Z" fill="white"/>
<path d="M112.683 2.16612C112.395 2.08281 112.126 2.04436 111.87 2.04436C111.466 2.04436 111.14 2.12767 110.89 2.28788C110.646 2.44809 110.525 2.66598 110.525 2.94154C110.525 3.18506 110.589 3.38372 110.73 3.53753C110.864 3.69133 111.031 3.81309 111.229 3.8964C111.428 3.98612 111.697 4.08224 112.042 4.19119C112.446 4.31295 112.766 4.4283 113.009 4.54365C113.253 4.659 113.464 4.82562 113.637 5.04992C113.81 5.2678 113.893 5.56259 113.893 5.92146C113.893 6.23548 113.803 6.51745 113.624 6.76097C113.445 7.00449 113.195 7.19033 112.875 7.32491C112.555 7.45949 112.183 7.52357 111.767 7.52357C111.357 7.52357 110.954 7.44026 110.557 7.28005C110.166 7.11343 109.827 6.89554 109.545 6.62639L109.814 6.14576C110.077 6.40209 110.39 6.60716 110.736 6.75456C111.088 6.90195 111.434 6.97245 111.767 6.97245C112.222 6.97245 112.58 6.88273 112.843 6.69688C113.105 6.51104 113.24 6.26752 113.24 5.9535C113.24 5.70358 113.169 5.49851 113.035 5.3447C112.9 5.18449 112.734 5.06273 112.535 4.97942C112.337 4.89611 112.062 4.79358 111.703 4.68464C111.3 4.56288 110.979 4.44112 110.736 4.33217C110.493 4.22323 110.288 4.05661 110.115 3.83872C109.948 3.62084 109.859 3.33887 109.859 2.9864C109.859 2.6852 109.942 2.42246 110.115 2.19816C110.288 1.97387 110.525 1.80084 110.826 1.67908C111.133 1.55732 111.485 1.49965 111.882 1.49965C112.203 1.49965 112.529 1.55091 112.856 1.64704C113.182 1.74317 113.464 1.87133 113.714 2.03155L113.458 2.5314C113.233 2.36478 112.971 2.24943 112.683 2.16612Z" fill="white"/>
<path d="M116.07 1.55091H120.738V1.9995L116.723 6.95321H120.77V7.47871H115.961V7.0173L119.983 2.0764H116.07V1.55091Z" fill="white"/>
<path d="M123.255 1.55091H127.219V2.0764H123.844V4.19759H126.867V4.72308H123.844V6.95321H127.334V7.47871H123.255V1.55091Z" fill="white"/>
<path d="M134.231 1.55091H134.807V7.47871H134.186L130.516 2.4609V7.47871H129.934V1.55091H130.555L134.231 6.56871V1.55091Z" fill="white"/>
<path d="M138.431 1.55091H137.849V7.4723H138.431V1.55091Z" fill="white"/>
<path d="M141.466 1.55091H145.43V2.0764H142.049V4.19759H145.072V4.72308H142.049V6.95321H145.539V7.47871H141.466V1.55091Z" fill="white"/>
<path d="M57.3372 10.747C57.8111 11.0161 58.1825 11.375 58.4579 11.8364C58.7332 12.2914 58.8741 12.7977 58.8741 13.3424C58.8741 13.8935 58.7332 14.3998 58.4579 14.8612C58.1825 15.3226 57.8047 15.6943 57.3372 15.9635C56.8634 16.2326 56.3511 16.3736 55.7812 16.3736C55.2113 16.3736 54.699 16.239 54.2251 15.9635C53.7513 15.6943 53.3799 15.3226 53.1045 14.8612C52.8292 14.3998 52.6883 13.8935 52.6883 13.3424C52.6883 12.7977 52.8292 12.2914 53.1045 11.8364C53.3799 11.3814 53.7577 11.0161 54.2251 10.747C54.699 10.4778 55.2113 10.3433 55.7812 10.3433C56.3511 10.3433 56.8634 10.4778 57.3372 10.747ZM54.5389 11.202C54.1547 11.4199 53.8473 11.7211 53.6232 12.0992C53.3991 12.4773 53.2838 12.8938 53.2838 13.3424C53.2838 13.7974 53.3991 14.214 53.6232 14.5985C53.8473 14.983 54.1547 15.2842 54.5389 15.5085C54.9231 15.7328 55.3393 15.8417 55.794 15.8417C56.2422 15.8417 56.6521 15.7328 57.0363 15.5085C57.4205 15.2842 57.7214 14.983 57.9456 14.5985C58.1697 14.214 58.285 13.7974 58.285 13.3424C58.285 12.8938 58.1697 12.4773 57.9456 12.0992C57.7214 11.7211 57.4141 11.4199 57.0363 11.202C56.6521 10.9841 56.2422 10.8752 55.794 10.8752C55.3393 10.8688 54.9167 10.9777 54.5389 11.202Z" fill="white"/>
<path d="M63.523 11.0546C63.2092 10.9264 62.8891 10.8623 62.5561 10.8623C62.1014 10.8623 61.6788 10.9713 61.301 11.1956C60.9232 11.4135 60.6158 11.7147 60.3981 12.0992C60.1804 12.4837 60.0651 12.8938 60.0651 13.3488C60.0651 13.8038 60.174 14.214 60.3981 14.5985C60.6222 14.9766 60.9232 15.2778 61.301 15.502C61.6852 15.7263 62.1014 15.8353 62.5561 15.8353C62.8827 15.8353 63.2028 15.7712 63.5166 15.643C63.824 15.5149 64.1057 15.3418 64.3427 15.1111L64.7012 15.4956C64.4067 15.7648 64.0737 15.9827 63.6959 16.1429C63.3181 16.3031 62.9275 16.38 62.5369 16.38C61.9798 16.38 61.4675 16.2454 60.9936 15.9699C60.5262 15.7007 60.1548 15.329 59.8794 14.8676C59.6041 14.4062 59.4696 13.8999 59.4696 13.3488C59.4696 12.8041 59.6105 12.2978 59.8858 11.8428C60.1612 11.3878 60.539 11.0226 61.0064 10.7534C61.4803 10.4842 61.9926 10.3497 62.5497 10.3497C62.9531 10.3497 63.3373 10.4266 63.7087 10.574C64.0801 10.7214 64.4067 10.9328 64.6884 11.1956L64.3427 11.5993C64.1057 11.3686 63.8304 11.1892 63.523 11.0546Z" fill="white"/>
<path d="M65.9756 10.3945H66.5583V13.1053H70.2595V10.3945H70.8486V16.3223H70.2595V13.6308H66.5583V16.3223H65.9756V10.3945Z" fill="white"/>
<path d="M76.6118 16.3159L75.3311 14.3806C75.1518 14.3934 75.0109 14.3998 74.9149 14.3998H73.2884V16.3159H72.7057V10.3945H74.9213C75.6577 10.3945 76.234 10.5676 76.6374 10.9072C77.0408 11.2469 77.2458 11.7339 77.2458 12.3619C77.2458 12.8554 77.1241 13.2655 76.8872 13.5924C76.6502 13.9192 76.3108 14.1499 75.869 14.2781L77.2906 16.3223H76.6118V16.3159ZM74.9213 13.8807C75.4848 13.8807 75.9202 13.7526 76.2276 13.4962C76.535 13.2399 76.6822 12.8682 76.6822 12.3812C76.6822 11.9069 76.5286 11.5481 76.2276 11.2981C75.9202 11.0482 75.4848 10.9264 74.9213 10.9264H73.2948V13.8807H74.9213Z" fill="white"/>
<path d="M82.9 10.747C83.3739 11.0161 83.7453 11.375 84.0206 11.8364C84.296 12.2914 84.4368 12.7977 84.4368 13.3424C84.4368 13.8935 84.296 14.3998 84.0206 14.8612C83.7453 15.3226 83.3675 15.6943 82.9 15.9635C82.4261 16.2326 81.9139 16.3736 81.3439 16.3736C80.774 16.3736 80.2617 16.239 79.7879 15.9635C79.314 15.6943 78.9426 15.3226 78.6673 14.8612C78.3919 14.3998 78.251 13.8935 78.251 13.3424C78.251 12.7977 78.3919 12.2914 78.6673 11.8364C78.9426 11.3814 79.3204 11.0161 79.7879 10.747C80.2617 10.4778 80.774 10.3433 81.3439 10.3433C81.9139 10.3433 82.4261 10.4778 82.9 10.747ZM80.1017 11.202C79.7175 11.4199 79.4101 11.7211 79.186 12.0992C78.9618 12.4773 78.8466 12.8938 78.8466 13.3424C78.8466 13.7974 78.9618 14.214 79.186 14.5985C79.4101 14.983 79.7175 15.2842 80.1017 15.5085C80.4859 15.7328 80.9021 15.8417 81.3568 15.8417C81.805 15.8417 82.2148 15.7328 82.599 15.5085C82.9832 15.2842 83.2842 14.983 83.5083 14.5985C83.7325 14.214 83.8477 13.7974 83.8477 13.3424C83.8477 12.8938 83.7325 12.4773 83.5083 12.0992C83.2842 11.7211 82.9768 11.4199 82.599 11.202C82.2148 10.9841 81.805 10.8752 81.3568 10.8752C80.9021 10.8688 80.4859 10.9777 80.1017 11.202Z" fill="white"/>
<path d="M90.0207 10.3945H90.597V16.3223H89.9759L86.3067 11.3045V16.3223H85.724V10.3945H86.3451L90.0207 15.4123V10.3945Z" fill="white"/>
<path d="M96.7509 10.3945L94.4712 14.2076V16.3223H93.8885V14.2076L91.5768 10.3945H92.1852L94.1831 13.5795L96.1425 10.3945H96.7509Z" fill="white"/>
<path d="M102.469 10.3945H107.137V10.8431L103.122 15.7969H107.169V16.3223H102.36V15.8609L106.382 10.92H102.469V10.3945Z" fill="white"/>
<path d="M115.564 10.3881H116.179L114.175 16.3223H113.566L111.895 11.1251L110.211 16.3223H109.609L107.611 10.3881H108.245L109.929 15.7007L111.607 10.3881H112.203L113.887 15.7007L115.564 10.3881Z" fill="white"/>
<path d="M117.748 10.3945H117.165V16.3159H117.748V10.3945Z" fill="white"/>
<path d="M119.611 10.3945H123.575V10.92H120.194V13.0412H123.217V13.5667H120.194V15.7969H123.684V16.3223H119.611V10.3945Z" fill="white"/>
<path d="M129.018 16.3159L127.737 14.3806C127.558 14.3934 127.417 14.3998 127.321 14.3998H125.695V16.3159H125.112V10.3945H127.321C128.058 10.3945 128.634 10.5676 129.037 10.9072C129.441 11.2469 129.646 11.7339 129.646 12.3619C129.646 12.8554 129.524 13.2655 129.287 13.5924C129.05 13.9192 128.711 14.1499 128.269 14.2781L129.69 16.3223H129.018V16.3159ZM127.328 13.8807C127.891 13.8807 128.327 13.7526 128.634 13.4962C128.941 13.2399 129.089 12.8682 129.089 12.3812C129.089 11.9069 128.935 11.5481 128.634 11.2981C128.327 11.0482 127.891 10.9264 127.328 10.9264H125.701V13.8807H127.328Z" fill="white"/>
<path d="M130.798 10.3945H135.46V10.8431L131.451 15.7969H135.498V16.3223H130.689V15.8609L134.711 10.92H130.798V10.3945Z" fill="white"/>
<path d="M141.703 17.5784L141.857 17.9629C141.652 18.0847 141.435 18.1423 141.204 18.1423C140.973 18.1423 140.788 18.0783 140.653 17.9629C140.519 17.8411 140.448 17.6681 140.448 17.4502C140.448 17.0465 140.705 16.6684 141.217 16.2967L140.525 14.7459H137.24L136.549 16.3223H135.921L138.591 10.401H139.2L141.87 16.3223C141.563 16.5402 141.332 16.7325 141.198 16.8863C141.057 17.0401 140.993 17.2003 140.993 17.3541C140.993 17.4694 141.025 17.5592 141.082 17.6168C141.14 17.6745 141.223 17.7002 141.326 17.7002C141.441 17.7002 141.575 17.6617 141.703 17.5784ZM137.471 14.214H140.301L138.88 11.0098L137.471 14.214Z" fill="white"/>
<path d="M141.447 10.3881H145.949V10.92H143.989V16.3223H143.407V10.92H141.447V10.3881Z" fill="white"/>
<path d="M141.204 18.6935C140.833 18.6935 140.525 18.5845 140.282 18.373C140.103 18.2128 139.898 17.9244 139.898 17.4502C139.898 17.2195 139.949 16.9952 140.058 16.7837C139.795 16.8478 139.565 16.976 139.373 17.1682C139.078 17.463 138.937 17.8411 138.937 18.3025C138.937 18.7575 139.084 19.1292 139.373 19.4304C139.667 19.7316 140.038 19.879 140.493 19.879C140.935 19.879 141.3 19.7316 141.595 19.4304C141.838 19.1805 141.979 18.8729 142.017 18.5076C141.761 18.6294 141.486 18.6935 141.204 18.6935Z" fill="white"/>
<path d="M58.6051 36.8357H59.0854L57.5165 41.4818H57.0363L55.7364 37.4125L54.4172 41.4818H53.9434L52.3809 36.8357H52.874L54.1931 40.9948L55.5058 36.8357H55.9733L57.2924 40.9948L58.6051 36.8357Z" fill="white"/>
<path d="M72.4687 41.4818L71.4697 39.9694C71.3289 39.9759 71.22 39.9823 71.1432 39.9823H69.8689V41.4818H69.4142V36.8421H71.1432C71.7195 36.8421 72.1677 36.9767 72.4879 37.2459C72.8017 37.515 72.9618 37.8931 72.9618 38.3802C72.9618 38.7647 72.8657 39.0851 72.68 39.3414C72.4943 39.5978 72.2318 39.7772 71.886 39.8797L73.0002 41.4754H72.4687V41.4818ZM71.1432 39.5721C71.585 39.5721 71.9244 39.4696 72.1613 39.2709C72.3983 39.0659 72.5199 38.7775 72.5199 38.3994C72.5199 38.0277 72.3983 37.7457 72.1613 37.5471C71.9244 37.3548 71.585 37.2523 71.1432 37.2523H69.8689V39.5657H71.1432V39.5721Z" fill="white"/>
<path d="M86.9534 37.1177C87.3249 37.3292 87.613 37.6111 87.8307 37.97C88.0485 38.3289 88.1573 38.7198 88.1573 39.1492C88.1573 39.5785 88.0485 39.9759 87.8307 40.3347C87.613 40.7 87.3184 40.982 86.9534 41.1999C86.582 41.4113 86.1786 41.5203 85.7368 41.5203C85.2949 41.5203 84.8915 41.4113 84.5201 41.1999C84.1487 40.9884 83.8606 40.7 83.6428 40.3347C83.4251 39.9694 83.3163 39.5785 83.3163 39.1492C83.3163 38.7198 83.4251 38.3289 83.6428 37.97C83.8606 37.6111 84.1551 37.3292 84.5201 37.1177C84.8851 36.9062 85.2949 36.8037 85.7368 36.8037C86.1786 36.8037 86.582 36.9062 86.9534 37.1177ZM84.7635 37.4766C84.4625 37.6496 84.2256 37.8867 84.0463 38.1815C83.867 38.4763 83.7773 38.8031 83.7773 39.1556C83.7773 39.508 83.867 39.8349 84.0463 40.1361C84.2256 40.4373 84.4625 40.6744 84.7635 40.8474C85.0644 41.0204 85.391 41.1101 85.7432 41.1101C86.089 41.1101 86.4156 41.0204 86.7165 40.8474C87.0175 40.6744 87.2544 40.4373 87.4273 40.1361C87.6002 39.8349 87.6899 39.508 87.6899 39.1556C87.6899 38.8031 87.6002 38.4763 87.4273 38.1815C87.2544 37.8867 87.0111 37.6496 86.7165 37.4766C86.4156 37.3035 86.0954 37.2202 85.7432 37.2202C85.391 37.2138 85.0644 37.3035 84.7635 37.4766Z" fill="white"/>
<path d="M101.355 37.3612C101.112 37.2587 100.862 37.2074 100.599 37.2074C100.241 37.2074 99.9142 37.2907 99.6132 37.4637C99.3122 37.6368 99.0817 37.8739 98.9024 38.1687C98.7295 38.4699 98.6399 38.7903 98.6399 39.1492C98.6399 39.508 98.7295 39.8285 98.9024 40.1232C99.0753 40.418 99.3122 40.6551 99.6132 40.8282C99.9142 41.0012 100.241 41.0909 100.599 41.0909C100.855 41.0909 101.105 41.0397 101.349 40.9435C101.592 40.8474 101.81 40.7064 101.995 40.527L102.271 40.8282C102.04 41.0397 101.778 41.2063 101.483 41.3344C101.188 41.4562 100.887 41.5203 100.574 41.5203C100.138 41.5203 99.7349 41.4113 99.3635 41.1999C98.9985 40.9884 98.7039 40.7 98.4926 40.3347C98.2813 39.9694 98.1724 39.5785 98.1724 39.1492C98.1724 38.7198 98.2813 38.3289 98.499 37.97C98.7167 37.6111 99.0049 37.3292 99.3763 37.1177C99.7477 36.9062 100.151 36.8037 100.587 36.8037C100.9 36.8037 101.201 36.8614 101.496 36.9767C101.79 37.0921 102.04 37.2587 102.264 37.4637L101.995 37.7842C101.81 37.6047 101.598 37.4637 101.355 37.3612Z" fill="white"/>
<path d="M113.438 41.0653H115.481V41.4818H112.984V39.2389L112.286 39.617V39.3094L112.984 38.9313V36.8357H113.438V38.6878L114.258 38.2456V38.5468L113.438 38.989V41.0653Z" fill="white"/>
<path d="M129.454 41.4818L128.903 40.2514H126.335L125.791 41.4818H125.304L127.392 36.8485H127.865L129.953 41.4818H129.454ZM126.514 39.8349H128.73L127.616 37.3292L126.514 39.8349Z" fill="white"/>
<path d="M145.514 36.8357H146L144.431 41.4818H143.951L142.645 37.4125L141.326 41.4818H140.858L139.296 36.8357H139.789L141.108 40.9948L142.421 36.8357H142.888L144.207 40.9948L145.514 36.8357Z" fill="white"/>
<path fill-rule="evenodd" clip-rule="evenodd" d="M18.1349 38.0854C17.7828 38.2648 17.4498 38.4378 17.1168 38.6044C16.4316 38.9505 15.8297 39.4311 15.2021 39.8669C15.1381 39.9118 15.0869 39.9887 15.0613 40.0592C14.8884 40.5975 14.7347 41.1358 14.5554 41.6741C14.4785 41.9112 14.3505 42.1355 14.248 42.3726C14.1392 42.6289 14.0431 42.8917 13.9278 43.148C13.8766 43.2634 13.787 43.3659 13.6781 43.5389C13.4924 42.9173 13.3771 42.347 13.0954 41.8343C13.0249 42.2701 13.0826 42.693 13.153 43.116C13.2299 43.571 13.2747 44.0388 13.0826 44.4938C12.9481 44.8078 12.724 44.9552 12.4166 44.9744C12.0964 44.9937 11.7763 44.9872 11.4497 44.9744C11.3344 44.968 11.2064 44.9168 11.1103 44.8591C10.6749 44.5835 10.3803 44.2246 10.4315 43.6543C10.4635 43.3211 10.4315 42.9878 10.4443 42.6546C10.4507 42.3982 10.4892 42.1419 10.5084 41.8856C10.5148 41.8535 10.502 41.8151 10.4956 41.7574C10.1882 41.9176 9.89363 42.0778 9.58626 42.2188C9.24047 42.379 8.90109 42.3854 8.62574 42.1291C8.46565 41.61 8.68977 41.2127 8.88188 40.7961C9.09319 40.3411 9.2917 39.8797 9.50302 39.4183C9.53504 39.3414 9.58626 39.2709 9.63749 39.194C9.85521 38.8416 10.0665 38.4891 10.2906 38.143C10.3675 38.0213 10.4507 37.8931 10.5404 37.7778C10.7581 37.4958 10.8221 37.1625 10.8734 36.8229C10.931 36.3999 11.0142 35.9706 10.9374 35.4771C10.6428 36.0347 10.3867 36.5602 10.0857 37.06C9.78477 37.5535 9.44539 38.0213 9.09319 38.5404C9.06758 38.4442 9.03556 38.3994 9.04837 38.3737C9.24047 37.9764 9.44539 37.5919 9.63749 37.1946C9.75276 36.9575 9.836 36.7011 9.93846 36.4576C10.0153 36.2654 10.0857 36.0667 10.1754 35.8809C10.4507 35.3105 10.7517 34.7466 11.0142 34.1698C11.2704 33.6059 11.4881 33.0291 11.7378 32.4652C12.0324 31.7987 12.3334 31.1386 12.6471 30.485C12.8969 29.9659 13.1786 29.466 13.4284 28.9534C13.7614 28.2741 14.0687 27.5819 14.4017 26.8962C14.5874 26.5117 14.8115 26.1529 15.01 25.7748C15.1765 25.4672 15.3238 25.1467 15.4967 24.8391C15.7656 24.3713 16.041 23.9163 16.3164 23.4549C16.6942 22.8269 17.0592 22.1925 17.4562 21.5772C17.7828 21.0646 18.1349 20.5583 18.4871 20.0649C18.7305 19.7252 19.0122 19.4176 19.2492 19.078C19.755 18.3538 20.2993 17.6617 20.9397 17.0529C21.1318 16.8671 21.2919 16.6428 21.484 16.4505C21.6953 16.239 21.913 16.0468 22.1435 15.8609C22.5149 15.5661 22.8799 15.2585 23.277 14.9894C23.8085 14.6241 24.3079 14.214 24.9227 13.9961C25.0571 13.9512 25.166 13.8423 25.3005 13.7782C25.7423 13.5667 26.2418 13.4962 26.6836 13.3104C27.2151 13.0925 27.7466 13.1309 28.2781 13.1181C28.5214 13.1117 28.7648 13.1181 29.0145 13.0668C28.7968 12.9387 28.5791 12.8169 28.3678 12.6759C27.8042 12.2914 27.3048 11.8428 26.9398 11.2661C26.6068 10.747 26.3314 10.1895 26.197 9.59348C26.0049 8.76679 25.8832 7.92729 26.1329 7.08138C26.2418 6.70969 26.2738 6.30595 26.4211 5.94708C26.6068 5.49849 26.8693 5.08194 27.0999 4.65258C27.1447 4.57568 27.1895 4.49237 27.2728 4.35779C26.7413 4.58209 26.3955 4.94737 25.9985 5.30624C25.8704 4.92173 26.261 4.76152 26.2482 4.43469C25.5182 5.0499 25.102 5.85096 24.6345 6.63278C24.6025 5.92145 25.0059 5.35751 25.2749 4.73589C25.0764 4.83202 25.07 4.83202 24.7562 5.30624C24.6089 5.53053 24.4872 5.76765 24.3528 6.00476C24.2183 6.23546 24.1991 6.51743 23.9365 6.69687C23.9621 6.51102 23.9685 6.31877 24.0198 6.14574C24.2119 5.5049 24.4104 4.85765 24.7626 4.28089C25.0059 3.87075 25.3261 3.51188 25.6014 3.12096C25.8768 2.75568 26.2546 2.48012 26.6452 2.28787C27.1447 2.04435 27.5417 1.67907 28.0156 1.41632C28.0348 1.40351 28.0604 1.39069 28.0796 1.38428C28.4062 1.29456 28.7328 1.17921 29.0657 1.12153C29.3795 1.06386 29.6997 1.04463 30.0199 1.04463C30.3977 1.04463 30.7819 1.07027 31.1597 1.12153C31.3582 1.14717 31.5567 1.2497 31.7424 1.33301C32.2227 1.55731 32.7221 1.73034 33.1256 2.12125C33.4714 2.45449 33.8043 2.79413 34.0733 3.19146C34.2142 3.40294 34.3102 3.64005 34.4127 3.87075C34.5407 4.15272 34.6816 4.42188 34.9249 4.62054C35.0338 4.70385 35.1491 4.77434 35.2451 4.86406C35.4885 5.07554 35.7958 5.17166 36.0776 5.30624C36.7307 5.61384 37.3839 5.92145 38.0563 6.17779C38.6262 6.39567 39.1833 6.63278 39.7404 6.88271C39.9197 6.95961 40.099 7.04292 40.2719 7.12623C40.7457 7.35053 41.2132 7.56842 41.6806 7.79271C41.8343 7.86961 41.9752 7.96574 42.1161 8.04905C42.5964 8.33743 43.083 8.6194 43.5569 8.90778C43.9795 9.17052 44.3957 9.43968 44.8184 9.70242C44.9721 9.79855 45.1193 9.90749 45.2858 9.9908C45.6828 10.1959 46.0158 10.4843 46.3424 10.7854C46.4385 10.8688 46.5345 10.9457 46.6434 11.0354C46.5217 11.1635 46.4128 11.1379 46.3104 11.1123C45.9646 11.029 45.6252 10.9392 45.2858 10.8367C44.9208 10.7342 44.5622 10.6124 44.1972 10.5099C43.8578 10.4138 43.5121 10.3369 43.1791 10.2279C42.8461 10.119 42.5259 9.97799 42.1993 9.84982C41.9624 9.7601 41.7255 9.67679 41.4821 9.59348C41.1235 9.46531 40.7714 9.33073 40.4192 9.18975C40.0926 9.06158 39.7596 8.95264 39.4074 8.87574C38.9592 8.77961 38.4981 8.6963 38.0755 8.49123C37.5952 8.25412 37.1021 8.03623 36.5963 7.8632C36.2761 7.75426 35.9879 7.53637 35.6229 7.5556C35.5525 7.56201 35.4885 7.50433 35.418 7.48511C34.9378 7.31849 34.4639 7.19673 33.9452 7.3313C33.7147 7.38898 33.4585 7.38898 33.2152 7.40821C32.6069 7.45947 31.9921 7.51715 31.3838 7.56842C31.3006 7.57482 31.1981 7.58764 31.1277 7.5556C30.8267 7.4082 30.545 7.5556 30.2568 7.58764C30.0967 7.60687 30.0199 7.81834 30.0711 8.00419C30.1928 8.4656 30.3785 8.90137 30.6538 9.29228C30.91 9.66397 31.1661 10.0421 31.435 10.4074C31.8128 10.92 32.2227 11.4071 32.7285 11.8044C33.2472 12.2209 33.7467 12.6631 34.2654 13.0797C34.4831 13.2527 34.7264 13.3937 34.9506 13.5667C35.7638 14.1691 36.5386 14.8164 37.2046 15.579C37.5056 15.9186 37.7297 16.3352 37.9474 16.7389C38.1139 17.0337 38.2292 17.3605 38.3444 17.6809C38.4085 17.8604 38.4277 18.059 38.4533 18.2513C38.5237 18.7704 38.6454 19.283 38.6454 19.8213C38.6454 20.2315 38.7414 20.648 38.7671 21.0582C38.7991 21.5516 38.7991 22.0451 38.703 22.5321C38.6134 22.9615 38.5814 23.4036 38.4085 23.8202C38.3316 24.0124 38.2484 24.1983 38.1395 24.3777C38.2164 23.8458 38.2035 23.3332 37.9858 22.8333C38.005 23.4037 37.8257 23.9484 37.7681 24.5059C37.7169 24.9545 37.576 25.3646 37.5056 25.8004C37.4671 26.0375 37.3903 26.281 37.2814 26.4989C37.0765 26.8898 37.0637 27.3641 36.7371 27.6973C36.6987 27.7422 36.6603 27.8062 36.6539 27.8639C36.6219 28.2997 36.3849 28.6714 36.2441 29.0687C36.084 29.5301 35.8727 29.9723 35.687 30.4209C35.6806 30.4401 35.6485 30.4465 35.5845 30.4786C35.719 29.6455 36.0392 28.8636 35.9111 27.96C35.8343 28.0882 35.7702 28.1587 35.7382 28.242C35.4885 28.8636 35.2195 29.4853 34.8737 30.062C34.5792 30.5619 34.2654 31.0553 33.9388 31.5359C33.7339 31.8371 33.497 32.1127 33.26 32.3947C33.2024 32.4652 33.1064 32.51 32.9719 32.6062C33.0359 32.2537 33.0871 31.9717 33.1384 31.6898C32.6261 32.305 32.1266 32.9138 31.3902 33.4008C31.4671 33.215 31.4927 33.0868 31.5631 32.9778C31.8961 32.478 32.1394 31.9397 32.4148 31.4078C32.6581 30.9464 32.7606 30.4401 32.9975 29.9787C33.0423 29.889 33.0359 29.7672 33.0231 29.6455C32.2867 30.8695 31.5247 32.055 30.545 33.0996C30.6602 32.5613 30.9548 32.0935 31.1277 31.5872C31.307 31.0681 31.4927 30.5491 31.6079 30.0107C31.7232 29.4788 31.9217 28.9534 31.9153 28.3958C31.2878 29.8441 30.545 31.2219 29.5844 32.478C29.578 32.4844 29.5396 32.4652 29.5012 32.4459C29.6357 32.1127 29.7765 31.7731 29.9174 31.4206C29.7701 31.3821 29.7125 31.5039 29.6485 31.568C29.0914 32.1255 28.5535 32.7023 27.9707 33.2406C27.5737 33.6123 27.1255 33.9391 26.69 34.2659C26.5428 34.4133 19.4349 38.0982 18.1349 38.0854Z" fill="white"/>
<path d="M4.16249 22.436C4.06643 24.0381 6.09635 28.4919 7.21056 29.6839C7.94056 30.4593 8.90108 32.3114 9.4774 33.734C9.50942 33.6635 9.54784 33.5995 9.57345 33.529C9.70793 33.2406 9.82319 32.9458 9.94486 32.651C10.0601 32.3755 10.169 32.1063 10.2906 31.8371C10.6172 31.1066 10.9182 30.4401 11.2256 29.8121C11.36 29.5301 11.5073 29.2545 11.6482 28.9726C11.7699 28.7419 11.8915 28.5048 12.0068 28.2677C12.1605 27.9536 12.3077 27.6332 12.4614 27.3128C12.6343 26.9475 12.8072 26.5758 12.9865 26.2105C13.1146 25.9478 13.2619 25.6851 13.4092 25.4287C13.4796 25.3005 13.5564 25.1724 13.6269 25.0378C13.6909 24.9224 13.7485 24.8071 13.8062 24.6917C13.9086 24.4867 14.0175 24.2752 14.1327 24.0765C14.3569 23.6792 14.5938 23.2883 14.8243 22.8974L15.2662 22.1604C15.5479 21.6862 15.8297 21.212 16.1242 20.7442C16.4892 20.1738 16.8735 19.6227 17.2064 19.1613C17.3409 18.9754 17.4818 18.796 17.6291 18.6166C17.7443 18.4756 17.8596 18.3346 17.962 18.1872C18.4871 17.4374 18.9866 16.8222 19.4925 16.2903C17.4434 15.5021 17.4562 11.6057 16.1627 8.66426C14.882 5.74202 13.3515 4.7423 12.1285 3.81949C10.9118 2.90308 10.4571 2.49294 9.89363 2.03794C9.33012 1.58294 7.93415 0.583229 7.69722 0.602455C7.46029 0.62168 7.46029 1.0895 7.33222 1.1664C7.20415 1.23689 6.76871 0.66013 6.551 0.474286C6.33968 0.288441 5.93626 6.20484e-05 5.81459 0.288441C5.68652 0.576821 6.68547 2.83259 6.54459 3.10815C6.39091 3.38371 6.21161 3.38371 5.19345 3.67209C4.17529 3.96047 2.68968 5.60103 2.28626 6.12652C1.88924 6.65201 1.52424 8.34384 1.30652 8.70912C1.0888 9.0744 0.595732 9.59989 0.397223 9.79855C0.198714 9.99721 0.0322229 10.3625 0.0130123 10.747C-0.00619819 11.1315 0.192311 11.4007 0.358802 11.5288C0.525293 11.657 0.378012 11.9838 0.5381 12.2722C0.704591 12.567 0.935118 12.7272 1.0824 12.8362C1.22968 12.9451 0.992749 13.2014 1.49863 13.7782C2.0045 14.3614 4.27135 14.4639 4.87968 15.0919C5.48801 15.7199 5.36635 17.2708 5.34073 18.1231C5.32152 18.969 4.25854 20.8339 4.16249 22.436Z" fill="white"/>
</svg>
